<svg width="82" height="73" viewBox="0 0 82 73" fill="none" xmlns="http://www.w3.org/2000/svg">
<path d="M32.6757 37.3056C33.4765 38.1967 34.7744 38.1967 35.5752 37.3056L37.0243 35.693C37.8251 34.8019 37.8251 33.3576 37.0243 32.4665L32.4477 27.375L37.023 22.2821C37.8238 21.391 37.8238 19.9467 37.023 19.0556L35.5739 17.443C34.7731 16.5519 33.4752 16.5519 32.6744 17.443L25.1996 25.761C24.3988 26.6521 24.3988 28.0964 25.1996 28.9876L32.6757 37.3056ZM44.977 35.6944L46.4261 37.307C47.2269 38.1981 48.5248 38.1981 49.3256 37.307L56.8004 28.989C57.6012 28.0979 57.6012 26.6536 56.8004 25.7624L49.3256 17.4444C48.5248 16.5533 47.2269 16.5533 46.4261 17.4444L44.977 19.057C44.1762 19.9481 44.1762 21.3924 44.977 22.2835L49.5523 27.375L44.977 32.4679C44.1762 33.359 44.1762 34.8033 44.977 35.6944ZM79.95 59.3125H48.8848C48.79 62.137 47.0001 63.875 44.69 63.875H36.9C34.5053 63.875 32.6693 61.3842 32.7013 59.3125H2.05C0.9225 59.3125 0 60.3391 0 61.5938V63.875C0 68.8938 3.69 73 8.2 73H73.8C78.31 73 82 68.8938 82 63.875V61.5938C82 60.3391 81.0775 59.3125 79.95 59.3125ZM73.8 6.84375C73.8 3.07969 71.0325 0 67.65 0H14.35C10.9675 0 8.2 3.07969 8.2 6.84375V54.75H73.8V6.84375ZM65.6 45.625H16.4V9.125H65.6V45.625Z" fill="#FFC107"/>
</svg>
