<svg width="118" height="118" viewBox="0 0 118 118" fill="none" xmlns="http://www.w3.org/2000/svg">
<path d="M51.625 14.75H22.125C20.169 14.75 18.2932 15.527 16.9101 16.9101C15.527 18.2932 14.75 20.169 14.75 22.125V76.2083C14.75 78.1643 15.527 80.0402 16.9101 81.4232C18.2932 82.8063 20.169 83.5833 22.125 83.5833H95.875C97.831 83.5833 99.7068 82.8063 101.09 81.4232C102.473 80.0402 103.25 78.1643 103.25 76.2083V51.625M59 83.5833V103.25" stroke="white" stroke-width="2" stroke-linecap="round" stroke-linejoin="round"/>
<path d="M78.6668 14.75L68.8334 24.5833L78.6668 34.4167M93.4168 14.75L103.25 24.5833L93.4168 34.4167M34.4167 103.25H83.5834" stroke="white" stroke-width="2" stroke-linecap="round" stroke-linejoin="round"/>
</svg>
