<svg width="118" height="118" viewBox="0 0 118 118" fill="none" xmlns="http://www.w3.org/2000/svg">
<path d="M86.8637 44.25C90.0511 42.2087 92.4915 39.1897 93.8195 35.6452C95.1475 32.1007 95.2916 28.2215 94.2301 24.5882C93.1687 20.955 90.9589 17.7634 87.9317 15.4912C84.9044 13.2191 81.2226 11.9887 77.4375 11.9844H44.25C40.4649 11.9887 36.7831 13.2191 33.7558 15.4912C30.7286 17.7634 28.5188 20.955 27.4574 24.5882C26.3959 28.2215 26.54 32.1007 27.868 35.6452C29.196 39.1897 31.6364 42.2087 34.8238 44.25C32.2932 45.8701 30.2219 48.114 28.8091 50.766C27.3962 53.418 26.6894 56.3888 26.7566 59.3929C26.8237 62.3969 27.6625 65.3332 29.1924 67.9194C30.7222 70.5056 32.8917 72.6548 35.4922 74.1602C32.6866 75.9964 30.406 78.5298 28.8738 81.5123C27.3416 84.4948 26.6103 87.8241 26.7516 91.1742C26.8928 94.5242 27.9017 97.7802 29.6795 100.623C31.4573 103.466 33.943 105.799 36.8931 107.392C39.8433 108.986 43.1568 109.786 46.509 109.714C49.8613 109.642 53.1374 108.7 56.0165 106.982C58.8956 105.263 61.279 102.826 62.9332 99.9096C64.5874 96.993 65.4557 93.6968 65.4531 90.3438V71.7588C67.2254 73.4453 69.3314 74.7419 71.6353 75.5649C73.9392 76.388 76.39 76.7193 78.8298 76.5374C81.2696 76.3555 83.6442 75.6646 85.8006 74.5091C87.9571 73.3536 89.8475 71.7591 91.3502 69.8284C92.8529 67.8978 93.9344 65.6737 94.5252 63.2996C95.1159 60.9254 95.2028 58.4539 94.7801 56.0441C94.3574 53.6344 93.4346 51.3399 92.0711 49.3086C90.7076 47.2772 88.9337 45.554 86.8637 44.25ZM89.4219 29.5C89.4219 32.6785 88.1592 35.7267 85.9117 37.9742C83.6642 40.2217 80.616 41.4844 77.4375 41.4844H65.4531V17.5156H77.4375C80.616 17.5156 83.6642 18.7783 85.9117 21.0258C88.1592 23.2733 89.4219 26.3215 89.4219 29.5ZM32.2656 29.5C32.2656 26.3215 33.5283 23.2733 35.7758 21.0258C38.0233 18.7783 41.0715 17.5156 44.25 17.5156H59.9219V41.4844H44.25C41.0715 41.4844 38.0233 40.2217 35.7758 37.9742C33.5283 35.7267 32.2656 32.6785 32.2656 29.5ZM44.25 70.9844C41.0715 70.9844 38.0233 69.7217 35.7758 67.4742C33.5283 65.2267 32.2656 62.1785 32.2656 59C32.2656 55.8215 33.5283 52.7733 35.7758 50.5258C38.0233 48.2783 41.0715 47.0156 44.25 47.0156H59.9219V70.9844H44.25ZM59.9219 90.3438C59.9219 93.0787 59.1109 95.7522 57.5914 98.0263C56.072 100.3 53.9123 102.073 51.3855 103.119C48.8588 104.166 46.0784 104.44 43.396 103.906C40.7136 103.373 38.2497 102.056 36.3158 100.122C34.3819 98.1878 33.0649 95.7239 32.5313 93.0415C31.9978 90.3591 32.2716 87.5787 33.3182 85.052C34.3648 82.5252 36.1372 80.3655 38.4113 78.8461C40.6853 77.3266 43.3588 76.5156 46.0937 76.5156H59.9219V90.3438ZM77.4375 70.9844C75.0672 70.9844 72.7502 70.2815 70.7793 68.9646C68.8085 67.6478 67.2724 65.7761 66.3654 63.5862C65.4583 61.3964 65.221 58.9867 65.6834 56.662C66.1458 54.3372 67.2872 52.2018 68.9633 50.5258C70.6393 48.8497 72.7747 47.7083 75.0995 47.2459C77.4242 46.7835 79.8339 47.0208 82.0237 47.9279C84.2136 48.835 86.0853 50.371 87.4021 52.3418C88.719 54.3127 89.4219 56.6297 89.4219 59C89.4219 62.1785 88.1592 65.2267 85.9117 67.4742C83.6642 69.7217 80.616 70.9844 77.4375 70.9844Z" fill="white"/>
</svg>
