<svg width="81" height="73" viewBox="0 0 81 73" fill="none" xmlns="http://www.w3.org/2000/svg">
<path d="M33.0816 46.0723C36.9812 46.0723 40.6614 46.8369 43.9274 48.1915C41.3804 45.6196 37.4401 43.9604 33.0045 43.9604C28.5067 43.9604 24.518 45.6678 21.9779 48.3019C25.3089 46.8797 29.0811 46.0723 33.0816 46.0723ZM44.2506 13.6376C38.1758 8.16258 28.3612 8.20675 22.2852 13.6802C16.2104 19.1549 16.1687 28.0213 22.244 33.4951L33.2182 43.3318L44.2161 33.4183C50.2913 27.9428 50.3243 19.1124 44.2506 13.6376ZM33.2585 31.9233C28.0903 31.9233 23.9009 28.147 23.9009 23.4901C23.9009 18.8312 28.0903 15.0555 33.2585 15.0555C38.4278 15.0555 42.6174 18.8321 42.6174 23.4901C42.6174 28.1463 38.429 31.9233 33.2585 31.9233ZM56.7675 8.76771C43.7998 -2.92257 22.6977 -2.92257 9.72798 8.76771C-3.24266 20.455 -3.24266 39.4745 9.72798 51.1626C22.2527 62.4505 42.3612 62.8347 55.4058 52.3211L58.0428 54.6986C57.3862 56.2134 57.7304 57.9985 59.0878 59.2219L73.0027 71.7628C74.8319 73.4124 77.799 73.4124 79.6272 71.7628C81.4576 70.1151 81.4576 67.4416 79.6272 65.7913L65.7135 53.253C64.355 52.0277 62.3736 51.7176 60.6926 52.3103L58.0556 49.9328C69.7232 38.1769 69.293 20.0539 56.7675 8.76771ZM13.7029 47.5811C2.92534 37.8688 2.92534 22.0621 13.7029 12.3487C24.4795 2.63533 42.0172 2.63533 52.7945 12.3487C63.5721 22.0621 63.5721 37.8686 52.7945 47.5811C42.0172 57.2934 24.4795 57.2934 13.7029 47.5811Z" fill="#FFC107"/>
</svg>
