<svg width="52" height="73" viewBox="0 0 52 73" fill="none" xmlns="http://www.w3.org/2000/svg">
<path d="M8.66667 0H43.3333C48.1199 0 52 4.0854 52 9.125V63.875C52 68.9147 48.1199 73 43.3333 73H8.66667C3.8802 73 0 68.9147 0 63.875V9.125C0 4.0854 3.8802 0 8.66667 0ZM8.66667 4.5625C6.27345 4.5625 4.33333 6.60522 4.33333 9.125V63.875C4.33333 66.3949 6.27345 68.4375 8.66667 68.4375H43.3333C45.7266 68.4375 47.6667 66.3949 47.6667 63.875V9.125C47.6667 6.60518 45.7266 4.5625 43.3333 4.5625H8.66667Z" fill="#FFC107"/>
<path d="M39 20.5312C39 21.6512 38.2334 22.5826 37.2229 22.7757L36.8333 22.8125H15.1667C13.9701 22.8125 13 21.7911 13 20.5312C13 19.4113 13.7665 18.4799 14.7772 18.2868L15.1667 18.25H36.8333C38.0298 18.25 39 19.2714 39 20.5312ZM39 36.5C39 37.6201 38.2334 38.5513 37.2229 38.7443L36.8333 38.7812H15.1667C13.9701 38.7812 13 37.7597 13 36.5C13 35.3801 13.7665 34.4487 14.7772 34.2555L15.1667 34.2188H36.8333C38.0298 34.2188 39 35.2401 39 36.5ZM39 52.4688C39 53.5888 38.2334 54.5201 37.2229 54.713L36.8333 54.75H15.1667C13.9701 54.75 13 53.7285 13 52.4688C13 51.3487 13.7665 50.4174 14.7772 50.2245L15.1667 50.1875H36.8333C38.0298 50.1875 39 51.209 39 52.4688Z" fill="#FFC107"/>
</svg>
